#!OML:ASF X:\für Bonn\!DataBase\2005_08_11_Bastian_Final\c3d\Bastian.ASF
:FULLY-SPECIFIED
:DEGREES
151
root -1.36794 18.4419 -0.199883 168.422 -59.1826 -177.122
lowerback 4.64715 -4.29446 0.354542
upperback -1.5573 -5.65829 2.58352
thorax -3.97952 -2.80827 2.91701
lowerneck 0.534108 -17.3689 -7.58084
upperneck -4.20945 -23.4478 13.3249
head 1.12091 -11.8361 4.40406
rclavicle 2.98177e-015 -3.10104e-014
rhumerus 48.5792 -6.39393 26.6105
rradius 26.9882
rwrist -293.919
rhand 23.3621 -21.0334
rfingers 7.12502
rthumb 47.6533 -403.406
lclavicle 2.98177e-015 -3.10104e-014
lhumerus 457.007 -6.11466 -296.669
lradius 30.4964
lwrist -134.54
lhand -14.1397 16.1919
lfingers 7.12502
lthumb 11.9944 45.8282
rfemur 2.03358 10.1346 22.6628
rtibia 32.2107
rfoot -9.43534 -25.3942
rtoes 3.50689
lfemur 6.32437 12.3168 -5.91979
ltibia 36.1839
lfoot 8.08417 4.50926
ltoes -37.8782
152
root -1.34818 18.4499 -0.225991 168.506 -59.2696 -177.241
lowerback 4.70333 -4.42306 0.365936
upperback -1.52157 -5.82892 2.65441
thorax -3.96049 -2.89397 2.99934
lowerneck 0.258251 -17.2593 -7.68649
upperneck -4.12242 -23.2885 13.3269
head 1.18635 -11.7438 4.39711
rclavicle -5.04913e-014 -3.18055e-015
rhumerus 48.5703 -3.84639 32.003
rradius 27.1112
rwrist -299.276
rhand 25.3866 -17.9598
rfingers 7.12502
rthumb 49.5159 -399.433
lclavicle -5.04913e-014 -3.18055e-015
lhumerus 456.846 -6.0513 -296.717
lradius 29.2195
lwrist -132.265
lhand -14.514 13.2894
lfingers 7.12502
lthumb 11.6335 42.9465
rfemur 1.91635 9.70529 22.4613
rtibia 32.3533
rfoot -9.26107 -24.791
rtoes 4.1756
lfemur 6.36047 12.922 -5.92756
ltibia 36.0458
lfoot 8.09506 4.9547
ltoes -38.5002
153
root -1.32919 18.4567 -0.252105 168.544 -59.3406 -177.332
lowerback 4.76508 -4.5345 0.412629
upperback -1.47442 -5.97482 2.70356
thorax -3.93935 -2.96835 3.03801
lowerneck 0.0132239 -17.1681 -7.81816
upperneck -3.9928 -23.1596 13.3349
head 1.26615 -11.6664 4.39308
rclavicle -1.13108e-013 5.96354e-014
rhumerus 48.7179 -2.06987 35.9346
rradius 27.3259
rwrist -302.962
rhand 26.7092 -15.5333
rfingers 7.12502
rthumb 50.7256 -396.366
lclavicle -1.13108e-013 5.96354e-014
lhumerus 456.604 -6.0961 -296.587
lradius 28.1846
lwrist -130.731
lhand -14.9769 10.9276
lfingers 7.12502
lthumb 11.187 40.6093
rfemur 1.84544 9.25484 22.284
rtibia 32.4762
rfoot -9.10804 -24.189
rtoes 4.72408
lfemur 6.4479 13.4323 -5.89766
ltibia 35.8798
lfoot 8.06855 5.33359
ltoes -39.0504
154
root -1.31107 18.4621 -0.277779 168.579 -59.4279 -177.408
lowerback 4.80853 -4.65056 0.463624
upperback -1.42347 -6.12714 2.75302
thorax -3.90402 -3.04631 3.07322
lowerneck -0.223561 -17.0735 -7.98506
upperneck -3.89372 -23.0241 13.3723
head 1.34241 -11.5865 4.40401
rclavicle -1.68967e-014 2.8625e-014
rhumerus 48.9398 -0.953556 38.6169
rradius 27.5538
rwrist -305.177
rhand 27.2673 -13.896
rfingers 7.12502
rthumb 51.2342 -394.446
lclavicle -1.68967e-014 2.8625e-014
lhumerus 456.328 -6.16675 -296.274
lradius 27.3884
lwrist -130.027
lhand -15.5776 9.06945
lfingers 7.12502
lthumb 10.6076 38.7817
rfemur 1.78042 8.80183 22.127
rtibia 32.5789
rfoot -8.91768 -23.6272
rtoes 4.99449
lfemur 6.54634 13.816 -5.86072
ltibia 35.6802
lfoot 8.05541 5.66027
ltoes -39.2745
155
root -1.2926 18.4647 -0.303692 168.611 -59.523 -177.486
lowerback 4.86669 -4.76127 0.500398
upperback -1.38908 -6.27258 2.79436
thorax -3.89383 -3.12006 3.10995
lowerneck -0.412849 -16.9828 -8.19349
upperneck -3.77235 -22.8987 13.4278
head 1.42554 -11.5123 4.42713
rclavicle 9.36276e-014 -4.77083e-015
rhumerus 49.1905 -0.306125 40.3102
rradius 27.7657
rwrist -306.231
rhand 27.2275 -13.0858
rfingers 7.12502
rthumb 51.1979 -393.656
lclavicle 9.36276e-014 -4.77083e-015
lhumerus 456.056 -6.1727 -296.167
lradius 26.8344
lwrist -129.833
lhand -16.2198 7.75397
lfingers 7.12502
lthumb 9.98814 37.497
rfemur 1.75658 8.42087 22.0135
rtibia 32.6442
rfoot -8.77478 -23.1669
rtoes 5.28219
lfemur 6.64516 14.0708 -5.8309
ltibia 35.4751
lfoot 8.04798 5.91939
ltoes -39.3182
156
root -1.27503 18.4652 -0.328982 168.638 -59.6356 -177.569
lowerback 4.90778 -4.8723 0.5354
upperback -1.33434 -6.4194 2.82322
thorax -3.85399 -3.19492 3.13196
lowerneck -0.642483 -16.9027 -8.36532
upperneck -3.63511 -22.7835 13.4415
head 1.51118 -11.4415 4.43057
rclavicle 7.45443e-014 -1.98785e-014
rhumerus 49.566 -0.730339 39.7738
rradius 27.78
rwrist -304.885
rhand 26.6089 -12.8283
rfingers 7.12502
rthumb 50.634 -393.712
lclavicle 7.45443e-014 -1.98785e-014
lhumerus 455.793 -6.14718 -296.139
lradius 26.544
lwrist -130.237
lhand -16.9258 6.926
lfingers 7.12502
lthumb 9.30694 36.7006
rfemur 1.77426 8.09178 21.9307
rtibia 32.689
rfoot -8.70736 -22.8002
rtoes 5.43182
lfemur 6.75221 14.252 -5.79412
ltibia 35.2656
lfoot 8.03519 6.14447
ltoes -39.2974
